<?xml version="1.0" encoding="utf-8"?>
<!-- Generator: Adobe Illustrator 27.9.0, SVG Export Plug-In . SVG Version: 6.00 Build 0)  -->
<svg version="1.1" id="Calque_1" xmlns="http://www.w3.org/2000/svg" xmlns:xlink="http://www.w3.org/1999/xlink" x="0px" y="0px"
	 viewBox="0 0 44.7 44.7" style="enable-background:new 0 0 44.7 44.7;" xml:space="preserve">
<style type="text/css">
	.st0{fill:#0065FC;}
</style>
<path class="st0" d="M22.3,44.7c-3,0-5.8-0.6-8.5-1.8c-2.7-1.2-5.1-2.8-7.1-4.8c-2.1-2.1-3.7-4.4-4.8-7.1C0.6,28.3,0,25.4,0,22.4
	c0-3.1,0.6-6,1.8-8.7C2.9,11,4.5,8.6,6.6,6.5c2.1-2.1,4.4-3.6,7.1-4.8C16.4,0.6,19.3,0,22.3,0c3.1,0,6,0.6,8.7,1.8
	c2.8,1.1,5.2,2.7,7.2,4.8c2.1,2.1,3.6,4.5,4.8,7.2c1.2,2.8,1.8,5.7,1.8,8.7c0,3-0.6,5.8-1.8,8.5c-1.1,2.7-2.7,5.1-4.8,7.1
	c-2.1,2.1-4.5,3.7-7.2,4.8C28.2,44.1,25.3,44.7,22.3,44.7z M22.3,7.8c-3.9,0-7.3,1.4-10.1,4.2C10.8,13.4,9.7,15,9,16.8
	c-0.8,1.8-1.1,3.7-1.1,5.6S8.2,26.2,9,28c0.8,1.8,1.8,3.3,3.2,4.7c1.3,1.3,2.9,2.4,4.6,3.2c1.8,0.8,3.6,1.1,5.5,1.1
	c1.9,0,3.8-0.4,5.6-1.1c1.8-0.8,3.4-1.8,4.7-3.2c1.3-1.3,2.3-2.9,3.1-4.7c0.8-1.8,1.1-3.6,1.1-5.5s-0.4-3.8-1.1-5.6
	c-0.8-1.8-1.8-3.4-3.1-4.8c-1.3-1.3-2.8-2.4-4.7-3.1C26.1,8.2,24.3,7.8,22.3,7.8z"/>
<path class="st0" d="M26.9,16.8c0,2.5-2,4.5-4.5,4.5s-4.5-2-4.5-4.5c0-2.5,2-4.5,4.5-4.5S26.9,14.3,26.9,16.8z"/>
<path class="st0" d="M17.9,31.3l2.2-16h5l1.9,16H17.9z"/>
</svg>
